# xmcd
# 
# Track frame offsets:
#     150
#     21978
#     49815
#     76093
# 
# Disc length: 1273
# 
# Revision: 0
# Processed by: cddbd v1.5.2PL0 Copyright (c) Steve Scherf et al.
# Submitted via: BonkEnc v1.0.8
# 
DISCID=2604f704
DTITLE=Old School funky family - Maxi EP
DYEAR=2010
DGENRE=
TTITLE0=Sachet Diesel
TTITLE1=Ze Niou One
TTITLE2=Provence Alpes Cotes de Porc
TTITLE3=La piste de Tourneburne
EXTD=
EXTT0=
EXTT1=
EXTT2=
EXTT3=
PLAYORDER=
